<svg width="130" height="130" viewBox="0 0 130 130" fill="none" xmlns="http://www.w3.org/2000/svg">
<path fill-rule="evenodd" clip-rule="evenodd" d="M5.43841 53.4517L24.3967 64.285L29.7701 54.8817L10.8117 44.0483L5.43841 53.4517ZM5.41675 86.6667H23.0209V75.8333H5.41675V86.6667ZM106.979 86.6667H124.583V75.8333H106.979V86.6667ZM5.43841 109.048L24.3967 98.215L29.7701 107.618L10.8117 118.452L5.43841 109.048ZM105.603 98.215L124.562 109.048L119.188 118.452L100.23 107.618L105.603 98.215ZM105.603 64.285L124.562 53.4517L119.188 44.0483L100.23 54.8817L105.603 64.285Z" fill="#1B5E20"/>
<path fill-rule="evenodd" clip-rule="evenodd" d="M24.8302 29.12L23.021 30.3279V105.593L65.0002 123.587L106.979 105.593V30.3334L105.17 29.1254L105.159 29.12L105.143 29.1038L105.089 29.0713L104.916 28.9629C103.957 28.3619 102.98 27.7911 101.985 27.2513C99.2637 25.7817 96.4605 24.4687 93.5893 23.3188C86.4989 20.475 76.4997 17.6042 65.0002 17.6042C53.5006 17.6042 43.5014 20.475 36.4056 23.3134C32.8522 24.7325 29.9977 26.1625 28.0152 27.2404C27.0225 27.7803 26.0471 28.3512 25.0902 28.9521L24.9114 29.0659L24.8572 29.0984L24.841 29.1146L24.8302 29.12Z" fill="black"/>
<path fill-rule="evenodd" clip-rule="evenodd" d="M63.2016 17.6258L47.1737 1.5871L39.4983 9.24627L49.5354 19.2888C42.0241 20.9215 34.7785 23.598 28.0095 27.2404C27.0169 27.7803 26.0415 28.3512 25.0845 28.9521L24.9058 29.0659L24.8516 29.1038L24.8354 29.1146L24.8245 29.12L23.0154 30.3279V48.75H106.974V30.3333L105.165 29.1254L105.154 29.12L105.137 29.1092L105.083 29.0713L104.91 28.9629C103.951 28.3619 102.974 27.7911 101.98 27.2513C95.2106 23.6089 87.965 20.9323 80.4537 19.2996L90.4908 9.25168L82.8371 1.5871L66.7983 17.6258C65.5996 17.5952 64.4003 17.5952 63.2016 17.6258ZM24.8245 29.12L27.0833 32.5L25.117 29.5533L24.8245 29.12Z" fill="#1B5E20"/>
</svg>
