<svg width="140" height="100" viewBox="0 0 140 100" fill="none" xmlns="http://www.w3.org/2000/svg">
<path d="M74.8326 33.9051C75.9753 33.09 77.525 32.6321 79.1408 32.6321C80.7566 32.6321 82.3062 33.09 83.4489 33.9051L92.5892 40.427C93.1712 40.8281 93.6355 41.3079 93.9548 41.8383C94.2742 42.3688 94.4423 42.9393 94.4493 43.5166C94.4563 44.094 94.3022 44.6665 93.9958 45.2008C93.6894 45.7352 93.2369 46.2206 92.6648 46.6289C92.0926 47.0371 91.4123 47.3599 90.6634 47.5786C89.9145 47.7972 89.1121 47.9072 88.303 47.9022C87.4939 47.8972 86.6943 47.7772 85.9509 47.5493C85.2075 47.3215 84.5351 46.9902 83.973 46.575L74.8326 40.0531C73.6903 39.2377 73.0485 38.132 73.0485 36.9791C73.0485 35.8262 73.6903 34.7205 74.8326 33.9051ZM53.5052 38.2531C54.6479 37.4379 56.1975 36.98 57.8133 36.98C59.4291 36.98 60.9787 37.4379 62.1215 38.2531L86.4957 55.6447C87.0777 56.0458 87.5419 56.5256 87.8613 57.056C88.1806 57.5865 88.3487 58.157 88.3558 58.7343C88.3628 59.3117 88.2086 59.8842 87.9022 60.4185C87.5958 60.9529 87.1434 61.4383 86.5712 61.8466C85.9991 62.2548 85.3187 62.5776 84.5698 62.7963C83.821 63.0149 83.0186 63.1249 82.2095 63.1199C81.4004 63.1149 80.6008 62.9949 79.8573 62.767C79.1139 62.5392 78.4415 62.2079 77.8794 61.7927L53.5052 44.401C52.3628 43.5857 51.7211 42.4799 51.7211 41.327C51.7211 40.1741 52.3628 39.0684 53.5052 38.2531ZM56.0279 53.4708C55.4658 53.0555 54.7934 52.7243 54.05 52.4964C53.3065 52.2685 52.5069 52.1486 51.6978 52.1436C50.8887 52.1385 50.0863 52.2486 49.3374 52.4672C48.5886 52.6858 47.9082 53.0086 47.3361 53.4169C46.7639 53.8251 46.3115 54.3106 46.0051 54.8449C45.6987 55.3792 45.5445 55.9518 45.5515 56.5291C45.5586 57.1064 45.7267 57.6769 46.046 58.2074C46.3654 58.7379 46.8296 59.2176 47.4116 59.6187L56.5519 66.1406C57.1141 66.5559 57.7864 66.8871 58.5299 67.115C59.2733 67.3428 60.0729 67.4628 60.882 67.4678C61.6911 67.4728 62.4935 67.3628 63.2424 67.1442C63.9913 66.9256 64.6716 66.6027 65.2438 66.1945C65.8159 65.7862 66.2684 65.3008 66.5748 64.7664C66.8811 64.2321 67.0353 63.6596 67.0283 63.0823C67.0213 62.5049 66.8532 61.9344 66.5338 61.4039C66.2145 60.8735 65.7502 60.3937 65.1682 59.9926L56.0279 53.4708ZM114.441 9.99161C115.583 9.1765 117.133 8.7186 118.749 8.7186C120.365 8.7186 121.914 9.1765 123.057 9.99161L126.104 12.1656C126.686 12.5666 127.15 13.0464 127.469 13.5769C127.789 14.1073 127.957 14.6779 127.964 15.2552C127.971 15.8325 127.817 16.405 127.51 16.9394C127.204 17.4737 126.751 17.9592 126.179 18.3674C125.607 18.7756 124.927 19.0985 124.178 19.3171C123.429 19.5357 122.627 19.6457 121.818 19.6407C121.009 19.6357 120.209 19.5158 119.465 19.2879C118.722 19.06 118.05 18.7288 117.488 18.3135L114.441 16.1396C113.298 15.3242 112.657 14.2185 112.657 13.0656C112.657 11.9127 113.298 10.807 114.441 9.99161ZM22.5133 81.7322C21.9512 81.3169 21.2788 80.9857 20.5354 80.7578C19.7919 80.53 18.9924 80.41 18.1833 80.405C17.3742 80.4 16.5718 80.51 15.8229 80.7286C15.074 80.9472 14.3936 81.2701 13.8215 81.6783C13.2494 82.0866 12.7969 82.572 12.4905 83.1064C12.1841 83.6407 12.0299 84.2132 12.037 84.7905C12.044 85.3678 12.2121 85.9384 12.5315 86.4688C12.8508 86.9993 13.315 87.4791 13.897 87.8802L16.9438 90.0541C17.5059 90.4694 18.1783 90.8006 18.9218 91.0285C19.6652 91.2564 20.4648 91.3763 21.2739 91.3813C22.083 91.3863 22.8854 91.2763 23.6343 91.0577C24.3831 90.8391 25.0635 90.5162 25.6356 90.108C26.2078 89.6998 26.6602 89.2143 26.9666 88.68C27.273 88.1456 27.4272 87.5731 27.4202 86.9958C27.4131 86.4185 27.245 85.8479 26.9257 85.3175C26.6063 84.787 26.1421 84.3072 25.5601 83.9062L22.5133 81.7322Z" fill="black"/>
<path fill-rule="evenodd" clip-rule="evenodd" d="M101.729 72.6625C88.7348 81.9366 71.0543 82.091 55.4426 80.5257C54.6354 80.4589 53.8552 80.2777 53.1477 79.9925C52.4402 79.7074 51.8197 79.3242 51.3228 78.8654C50.826 78.4067 50.4627 77.8816 50.2544 77.3212C50.0461 76.7608 49.9971 76.1763 50.11 75.6022C50.223 75.028 50.4958 74.4758 50.9123 73.978C51.3288 73.4802 51.8807 73.0468 52.5354 72.7034C53.1901 72.3601 53.9344 72.1136 54.7246 71.9785C55.5148 71.8434 56.3349 71.8224 57.1366 71.9168C72.0201 73.406 84.4388 72.7038 93.113 66.5146C102.905 59.5275 102.85 49.1664 99.8007 36.927C99.034 33.9455 98.1981 30.9733 97.2932 28.0116L97.2749 27.9551C96.4065 25.0311 95.5291 22.0897 94.8466 19.281C93.506 13.7852 92.6682 8.01987 94.6089 3.1763C94.8253 2.6245 95.1925 2.10867 95.6892 1.65846C96.1859 1.20824 96.8024 0.832521 97.5034 0.552896C98.2043 0.273271 98.9757 0.0952576 99.7734 0.0290888C100.571 -0.0370799 101.379 0.00990154 102.151 0.167332C102.923 0.324762 103.644 0.589537 104.273 0.946433C104.901 1.30333 105.424 1.74531 105.812 2.24696C106.2 2.74861 106.445 3.30005 106.534 3.86955C106.622 4.43906 106.552 5.01541 106.327 5.56547C105.221 8.33075 105.526 12.3482 106.851 17.7896C107.497 20.431 108.329 23.2267 109.212 26.2029L109.218 26.2246C110.096 29.1681 111.016 32.2704 111.799 35.403C114.846 47.6207 116.314 62.2558 101.729 72.6625ZM42.445 74.4408C42.11 75.5684 41.1612 76.5549 39.8072 77.1835C38.4531 77.8121 36.8047 78.0313 35.2242 77.793C29.2342 76.8887 23.8231 76.0974 18.994 75.7104C14.113 75.3191 10.4021 75.393 7.69042 75.9452C6.14397 76.2448 4.49434 76.0977 3.09877 75.5358C1.70321 74.9739 0.674033 74.0423 0.234123 72.9428C-0.205787 71.8434 -0.0210224 70.6645 0.748406 69.6615C1.51783 68.6586 2.80999 67.9122 4.34505 67.5841C9.32654 66.5689 14.9021 66.6319 20.3589 67.0689C25.8645 67.5124 31.8392 68.395 37.7499 69.2864C39.3303 69.5259 40.7127 70.2034 41.5931 71.17C42.4736 72.1366 42.78 73.3131 42.445 74.4408Z" fill="#1B5E20"/>
<path fill-rule="evenodd" clip-rule="evenodd" d="M38.2707 27.3834C51.2622 18.1093 68.9457 17.955 84.5574 19.5202C85.3646 19.587 86.1449 19.7683 86.8524 20.0534C87.5599 20.3385 88.1803 20.7218 88.6772 21.1805C89.174 21.6393 89.5373 22.1643 89.7456 22.7247C89.9539 23.2851 90.003 23.8696 89.89 24.4437C89.777 25.0179 89.5042 25.5701 89.0877 26.0679C88.6712 26.5658 88.1194 26.9991 87.4647 27.3425C86.8099 27.6859 86.0656 27.9324 85.2754 28.0675C84.4852 28.2025 83.6651 28.2235 82.8634 28.1291C67.9799 26.6399 55.5612 27.3421 46.887 33.5314C37.0947 40.5185 37.1495 50.8796 40.1994 63.1189C40.9397 66.0951 41.8233 69.0647 42.7069 72.0343L42.7251 72.0909C43.5935 75.0148 44.4709 77.9562 45.1534 80.765C46.494 86.2607 47.3319 92.0261 45.3911 96.8696C44.9401 97.9727 43.8956 98.9035 42.4858 99.4587C41.0759 100.014 39.4154 100.148 37.8671 99.8327C36.3187 99.517 35.0085 98.7768 34.2226 97.7739C33.4368 96.771 33.2392 95.587 33.6732 94.4805C34.7791 91.7152 34.4745 87.6977 33.1491 82.2563C32.5032 79.6149 31.6714 76.8192 30.7879 73.8431L30.7818 73.8213C29.8506 70.7722 28.9903 67.7123 28.2011 64.6429C25.1544 52.4253 23.6858 37.788 38.2707 27.3813M97.555 25.6051C97.89 24.4776 98.8388 23.491 100.193 22.8624C101.547 22.2338 103.195 22.0146 104.776 22.2529C110.766 23.1573 116.177 23.9486 121.006 24.3355C125.887 24.7269 129.598 24.6529 132.31 24.1008C133.856 23.8011 135.506 23.9482 136.901 24.5101C138.297 25.0721 139.326 26.0037 139.766 27.1031C140.206 28.2026 140.021 29.3814 139.252 30.3844C138.482 31.3874 137.19 32.1337 135.655 32.4618C130.673 33.477 125.095 33.4162 119.641 32.977C114.136 32.5357 108.161 31.6509 102.25 30.7596C100.67 30.5201 99.2873 29.8425 98.4069 28.876C97.5264 27.9094 97.22 26.7329 97.555 25.6051Z" fill="#1B5E20"/>
</svg>
