<svg width="126" height="126" viewBox="0 0 126 126" fill="none" xmlns="http://www.w3.org/2000/svg">
<g clip-path="url(#clip0_27_88)">
<path d="M108.281 69.1031L123.047 83.6719L57.4875 114.975C57.4875 114.975 48.825 118.913 44.6906 112.613C28.5469 87.4125 108.281 69.1031 108.281 69.1031Z" fill="#962C2C"/>
<path d="M55.9125 96.6656C55.9125 96.6656 43.3125 100.997 45.675 109.462C48.0375 118.125 58.0781 112.809 58.0781 112.809L120.291 83.8687C120.291 83.8687 116.747 74.6156 123.047 68.5125L55.9125 96.6656Z" fill="#D9E3E8"/>
<path d="M66.3469 9.84375L126 67.9219L55.5188 95.4844L10.2375 25.0031L66.3469 9.84375Z" fill="#ED4C5C"/>
<path d="M68.1186 23.0344L79.5374 35.2406L36.8155 50.5969L26.7749 35.0438L68.1186 23.0344Z" fill="white"/>
<path d="M120.094 74.8125L78.5532 91.7438L119.503 73.0406L120.094 74.8125ZM119.503 79.9313L75.2063 98.2406L118.716 77.9625L119.503 79.9313ZM119.897 82.6875L63.3938 107.1L119.109 80.9156L119.897 82.6875Z" fill="#94989B"/>
<path d="M44.6906 112.612C37.8 98.2406 55.5188 95.6812 55.5188 95.6812L10.2375 25.0031C10.2375 25.0031 0 24.8062 0 35.4375C0 39.7687 1.96875 43.1156 1.96875 43.1156L44.6906 112.612Z" fill="#C94747"/>
</g>
<defs>
<clipPath id="clip0_27_88">
<rect width="126" height="126" fill="white"/>
</clipPath>
</defs>
</svg>
