<svg width="112" height="118" viewBox="0 0 112 118" fill="none" xmlns="http://www.w3.org/2000/svg">
<path d="M58.625 117.25C56.2986 117.25 54.3221 116.459 52.6955 114.877C51.0689 113.295 50.2537 111.341 50.25 109.015C50.25 107.898 50.4603 106.828 50.8809 105.804C51.3015 104.781 51.9287 103.897 52.7625 103.152L56.6708 99.5229C57.2292 99.0576 57.8806 98.825 58.625 98.825C59.3695 98.825 60.0208 99.0576 60.5792 99.5229L64.4875 103.152C65.325 103.897 65.9522 104.781 66.3691 105.804C66.786 106.828 66.9963 107.898 67 109.015C67 111.341 66.1867 113.295 64.5601 114.877C62.9335 116.459 60.9551 117.25 58.625 117.25ZM36.4313 105.944C35.5938 105.106 35.175 104.129 35.175 103.013C35.175 101.896 35.5938 100.919 36.4313 100.081L47.0396 89.4729C47.8771 88.6354 48.8542 88.2167 49.9708 88.2167C51.0875 88.2167 52.0646 88.6354 52.9021 89.4729C53.7396 90.3104 54.1583 91.2875 54.1583 92.4042C54.1583 93.5208 53.7396 94.4979 52.9021 95.3354L42.2938 105.944C41.4563 106.781 40.4792 107.2 39.3625 107.2C38.2458 107.2 37.2688 106.781 36.4313 105.944ZM73.4208 98.5458L68.9542 94.0792C68.3958 93.5208 68.1167 92.8694 68.1167 92.125C68.1167 91.3806 68.3958 90.7292 68.9542 90.1708L73.4208 85.7042C73.9792 85.1458 74.6306 84.8667 75.375 84.8667C76.1195 84.8667 76.7708 85.1458 77.3292 85.7042L81.7958 90.1708C82.3542 90.7292 82.6333 91.3806 82.6333 92.125C82.6333 92.8694 82.3542 93.5208 81.7958 94.0792L77.3292 98.5458C76.7708 99.1042 76.1195 99.3833 75.375 99.3833C74.6306 99.3833 73.9792 99.1042 73.4208 98.5458ZM31.5458 94.0792L27.0792 98.5458C26.5208 99.1042 25.8694 99.3833 25.125 99.3833C24.3806 99.3833 23.7292 99.1042 23.1708 98.5458L18.7042 94.0792C18.1458 93.5208 17.8667 92.8694 17.8667 92.125C17.8667 91.3806 18.1458 90.7292 18.7042 90.1708L23.1708 85.7042C23.7292 85.1458 24.3806 84.8667 25.125 84.8667C25.8694 84.8667 26.5208 85.1458 27.0792 85.7042L31.5458 90.1708C32.1042 90.7292 32.3833 91.3806 32.3833 92.125C32.3833 92.8694 32.1042 93.5208 31.5458 94.0792ZM30.7083 78.1667C22.2403 78.1667 15.0043 75.1666 9.00034 69.1663C2.99639 63.1661 -0.00371876 55.9301 3.45931e-06 47.4583C3.45931e-06 39.7347 2.55903 32.9882 7.67709 27.2188C12.7951 21.4493 19.1229 18.0528 26.6604 17.0292C29.6382 11.725 33.7103 7.55984 38.8768 4.53367C44.0432 1.50751 49.6954 -0.00371536 55.8333 6.85913e-06C64.2083 6.85913e-06 71.4909 2.67628 77.6809 8.02884C83.871 13.3814 87.6155 20.0572 88.9146 28.0563C95.3354 28.6146 100.733 31.2667 105.106 36.0125C109.48 40.7583 111.667 46.4347 111.667 53.0417C111.667 60.0208 109.225 65.9541 104.341 70.8413C99.4578 75.7286 93.5246 78.1704 86.5417 78.1667H30.7083Z" fill="black"/>
</svg>
