<svg width="133" height="133" viewBox="0 0 133 133" fill="none" xmlns="http://www.w3.org/2000/svg">
<path d="M116.364 16.625V27.7083C116.364 37.9965 112.277 47.8633 105.002 55.1382C97.7273 62.413 87.8605 66.5 77.5723 66.5H72.0306V72.0417H99.7389V110.833C99.7389 113.773 98.5712 116.592 96.4927 118.67C94.4142 120.749 91.5951 121.917 88.6556 121.917H44.3223C41.3828 121.917 38.5637 120.749 36.4852 118.67C34.4066 116.592 33.2389 113.773 33.2389 110.833V72.0417H60.9473V55.4167C60.9473 45.1285 65.0342 35.2617 72.3091 27.9868C79.5839 20.712 89.4507 16.625 99.7389 16.625H116.364ZM30.4681 11.0833C37.118 11.0779 43.6718 12.6704 49.5777 15.7265C55.4837 18.7827 60.5689 23.2132 64.4053 28.6449C58.5523 36.3413 55.3903 45.7476 55.4056 55.4167V60.9583H52.6348C41.6117 60.9583 31.0401 56.5794 23.2456 48.785C15.4512 40.9905 11.0723 30.4189 11.0723 19.3958V11.0833H30.4681Z" fill="black"/>
</svg>
