<svg width="50" height="50" viewBox="0 0 50 50" fill="none" xmlns="http://www.w3.org/2000/svg">
<path d="M25 0C14.5801 0 6.25 8.33008 6.25 18.75C6.25 22.3535 7.32422 25.1367 9.18945 27.959L23.0273 48.9551C23.4473 49.5898 24.1699 50 25 50C25.8301 50 26.5625 49.5801 26.9727 48.9551L40.8105 27.959C42.6758 25.1367 43.75 22.3535 43.75 18.75C43.75 8.33008 35.4199 0 25 0ZM25 29.1602C19.248 29.1602 14.5801 24.4922 14.5801 18.7305C14.5801 12.9688 19.248 8.30078 25 8.30078C30.752 8.30078 35.4199 12.9688 35.4199 18.7305C35.4199 24.4922 30.752 29.1602 25 29.1602ZM25 12.5C21.543 12.5 18.75 15.293 18.75 18.75C18.75 22.207 21.543 25 25 25C28.457 25 31.25 22.207 31.25 18.75C31.25 15.293 28.457 12.5 25 12.5Z" fill="#FD2F2F"/>
</svg>
