<svg width="127" height="127" viewBox="0 0 127 127" fill="none" xmlns="http://www.w3.org/2000/svg">
<path d="M63.5 122.763C75.1772 122.763 84.6435 118.397 84.6435 113.01C84.6435 107.624 75.1772 103.257 63.5 103.257C51.8227 103.257 42.3564 107.624 42.3564 113.01C42.3564 118.397 51.8227 122.763 63.5 122.763Z" fill="#D44A28"/>
<path d="M98.7524 85.7746C98.7524 100.439 82.9667 116.394 63.5 116.394C44.0333 116.394 28.2476 100.439 28.2476 85.7746C28.2476 71.1101 98.7524 71.1101 98.7524 85.7746Z" fill="#ED603A"/>
<path d="M63.5001 93.6327C82.7503 93.6327 98.3556 89.0484 98.3556 83.3934C98.3556 77.7383 82.7503 73.154 63.5001 73.154C44.2499 73.154 28.6445 77.7383 28.6445 83.3934C28.6445 89.0484 44.2499 93.6327 63.5001 93.6327Z" fill="#FF8A65"/>
<path d="M92.978 82.6988C92.978 85.9433 81.925 89.535 63.5001 89.535C45.3728 89.535 34.0222 85.9433 34.0222 82.6988C34.0222 79.4544 47.2183 75.5948 63.5001 75.5948C79.7819 75.5948 92.978 79.4643 92.978 82.6988Z" fill="#5D4037"/>
<path opacity="0.18" d="M98.3158 83.8498C98.3357 83.7009 98.3555 83.5422 98.3555 83.3934C98.3555 77.7379 82.7484 73.154 63.5 73.154C44.2515 73.154 28.6444 77.7379 28.6444 83.3934C28.6444 83.5422 28.6643 83.7009 28.6841 83.8498C28.3964 84.4649 28.2476 85.1098 28.2476 85.7746C28.2476 92.5116 31.3531 98.8318 35.9965 103.981C36.6613 104.715 45.462 102.632 51.1274 99.2684C61.9919 92.8291 70.6536 89.3266 70.6536 89.3266C70.6536 89.3266 66.5559 89.5152 63.4901 89.5152C45.3628 89.5152 34.0122 85.9234 34.0122 82.679C34.0122 79.4345 47.2083 75.5749 63.4901 75.5749C79.7719 75.5749 92.9679 79.4345 92.9679 82.679C92.9679 84.9809 87.3819 87.4613 77.5494 88.7016C78.4622 88.6916 79.9108 88.8206 81.657 89.5152C86.9851 91.6186 94.1486 100.638 96.0735 96.52C97.7503 92.9184 98.7425 89.8922 98.7425 85.7548C98.7524 85.0999 98.5936 84.455 98.3158 83.8498Z" fill="#212121"/>
<path d="M84.9213 46.3649C84.9609 46.0772 85.1296 44.6385 82.917 44.2218C80.7045 43.8051 78.9384 43.9737 78.9384 43.9737L77.6783 40.392C78.6407 37.1376 80.2381 35.6195 78.8788 32.2659C78.5613 31.492 76.8647 31.0356 75.4657 31.4325C75.4657 31.4325 74.0766 31.3928 72.8761 32.2362C71.8442 32.9704 67.4984 36.6415 66.7543 34.4884C66.4467 33.5955 66.8932 33.0597 68.7883 31.7004C70.4849 30.4899 72.3701 29.468 73.8584 27.9995C76.4083 25.4695 74.8009 21.9174 74.8009 21.9174C74.8009 21.9174 72.7769 21.1534 71.1596 22.3837C69.9293 23.3164 68.9669 23.8522 68.3914 24.2391C65.5835 26.1243 65.4049 23.3859 67.1909 22.3242L70.5048 20.0918C73.9179 17.7205 72.3899 13.8906 72.3899 13.8906C72.3899 13.8906 71.4077 13.583 70.1178 14.4661C69.6614 14.7836 69.1752 15.2102 68.4609 15.5575C67.4092 16.0635 66.6948 16.3314 66.288 15.6071C66.0102 15.111 66.5162 14.5058 67.4885 13.8112C68.5998 13.0274 69.205 12.8984 69.9789 11.7971C71.1795 10.1005 70.862 7.95734 70.5445 7.50094C70.2369 7.05445 67.8457 9.69367 67.4092 8.68164C67.0718 7.89781 68.1434 6.46906 67.0024 4.445C66.1491 2.93688 64.5516 2.25227 64.5516 2.25227C63.3313 3.87945 63.1824 6.62781 64.2044 8.41375C64.8295 9.50516 65.5438 10.4874 64.8989 11.0827C64.4425 11.4995 63.8571 10.924 62.9046 10.2989C61.466 9.36625 59.5709 10.1005 59.5709 10.1005C59.5709 10.1005 58.7275 12.5413 60.0273 14.1585C60.9699 15.3392 61.7338 15.7857 63.1924 17.016C64.7501 18.3257 63.8274 19.814 61.9819 18.8317C61.337 18.4845 60.4341 17.7701 59.432 17.3335C57.9437 16.6787 55.8006 17.6808 55.8006 17.6808C55.8006 17.6808 54.9969 21.342 57.0408 22.6417C57.7353 23.0882 60.6325 25.023 61.6148 25.529C63.6488 26.5807 63.1626 29.1505 60.8806 28.069C59.2534 27.2951 57.517 25.9953 55.7212 25.2115C53.3399 24.1697 51.7425 25.2809 51.7425 25.2809C51.7425 25.2809 51.0281 28.4758 52.8637 30.2617C54.0742 31.4424 57.011 33.3673 58.1719 34.0618C59.2931 34.7266 61.0393 35.4608 60.6424 36.2843C59.5609 38.5465 56.0784 36.8895 54.5206 36.0065C51.7624 34.4388 48.8552 33.3276 47.2181 34.6075C45.5711 35.8973 46.7717 39.8264 46.7121 41.5528C46.5732 45.3827 49.8077 45.5414 50.9388 48.7462C51.1571 49.3713 51.1075 50.0658 51.0678 50.7305C50.7999 55.1061 51.1571 59.5312 52.1096 63.8076C52.2188 64.2937 52.3577 64.8196 52.7347 65.1371C53.1018 65.4546 53.6277 65.5141 54.1138 65.5538C59.0847 65.9904 64.0853 66.2087 69.076 66.2087C72.8463 66.2087 76.7059 66.0598 80.1885 64.6212C80.8235 64.3533 81.4883 64.0159 81.8356 63.4206C82.1431 62.9047 79.7024 56.1578 80.0893 55.7014C82.3614 53.0126 84.4748 49.3712 84.9213 46.3649Z" fill="url(#paint0_linear_25_47)"/>
<path d="M120.055 39.2013C119.469 39.1319 119.072 39.241 119.36 38.606C119.717 37.8023 119.807 37.5146 119.946 36.959C120.283 35.5501 119.747 34.6075 119.747 34.6075C119.747 34.6075 117.842 34.8258 116.969 36.5919C116.513 37.5146 115.858 39.7768 114.756 38.983C114.3 38.6457 114.707 38.0901 114.766 37.1773C114.905 35.2425 113.387 34.8555 113.387 34.8555C113.387 34.8555 111.512 35.4012 111.016 37.1177C110.599 38.5762 110.5 39.37 110.272 40.7094C110.053 41.9993 110.202 42.6343 109.28 42.8724C108.486 43.0808 108.029 42.4755 108.129 41.5032C108.258 40.1141 108.267 38.9136 108.267 38.9136C108.555 36.7605 106.353 36.4133 106.353 36.4133C106.353 36.4133 104.051 36.6117 103.436 39.1616C103.098 40.5805 103.009 41.1559 102.701 43.0709C102.552 43.9837 102.543 45.1445 101.749 45.8391C100.905 46.5733 99.9232 45.9184 99.953 44.3309C99.9728 43.1602 100.102 42.4359 100.022 40.7094C99.943 38.983 98.0876 38.8739 98.0876 38.8739C98.0876 38.8739 95.2202 40.1042 95.1111 43.0609C95.0317 45.1247 94.9821 48.508 95.0416 49.4705C95.0416 49.4705 95.3294 51.2564 93.9304 51.8021C93.0771 52.1196 92.0948 51.5838 92.0452 50.0261C91.9758 47.9524 92.0353 47.7441 91.9162 45.1148C91.8071 42.6541 89.8029 41.9497 89.8029 41.9497C89.8029 41.9497 86.7569 42.287 86.1715 45.2239C85.8242 46.9404 85.854 54.4512 83.3735 54.3719C80.4962 54.2727 74.6819 47.9723 72.6976 55.1259C72.3602 56.3265 71.6558 57.4278 70.6437 58.1521C69.3241 59.1145 67.6573 59.4122 66.0797 59.8587C60.8707 61.3271 56.3364 64.7601 53.2209 69.1455C51.5739 71.4673 46.2062 81.3991 49.3514 83.7009C50.4726 84.5245 54.1536 84.2268 55.6716 84.2268C59.0351 84.2367 62.3887 84.2466 65.7522 84.2466C70.6537 84.2566 75.5451 84.2665 80.4466 84.2863C80.6251 83.2544 80.6648 82.2523 80.6053 81.2701L81.9249 81.28L91.4301 81.6471C91.4301 81.6471 93.3648 77.976 95.1408 77.1823C95.379 77.0731 98.8615 74.5034 98.7524 74.2652C97.3633 71.1894 89.5648 68.2427 89.5648 68.2427C90.8248 68.1434 92.6703 66.7147 96.0437 68.5403C100.062 70.7132 102.523 69.721 102.523 69.721C102.523 69.721 103.416 68.3816 100.796 65.0379C99.4271 63.2817 93.3847 60.1861 93.3847 60.1861C92.7298 59.7396 90.9935 59.2931 91.8071 58.0132C92.3627 57.1302 94.7043 57.8941 96.7581 59.0153C98.4944 59.9678 98.1968 60.077 102.086 62.23C104.507 63.5695 107.851 62.23 107.851 62.23C107.851 62.23 108.029 59.2038 105.916 57.279C104.13 55.6518 100.022 53.1912 100.022 53.1912C99.0699 52.3776 98.9211 51.7227 99.695 51.2961C100.816 50.6909 102.166 51.5342 103.436 52.1791C104.706 52.8241 108.188 54.5306 108.188 54.5306C110.153 55.6022 113.179 55.2648 113.179 55.2648C113.179 55.2648 113.854 52.8439 112.891 51.693C111.502 50.0261 107.504 48.2501 107.504 48.2501C106.501 47.5159 106.243 47.0694 106.809 46.4641C107.375 45.8688 107.89 45.8787 109.567 46.6626C111.333 47.496 112.703 48.1707 114.29 48.6866C115.878 49.2026 118.795 48.2203 118.795 48.2203C118.795 48.2203 118.705 45.968 117.217 44.9759C116.066 44.2119 114.677 43.6562 114.677 43.6562C113.903 43.3884 113.298 42.7732 113.685 42.0489C114.141 41.2155 115.907 41.9298 117.028 42.1481C118.666 42.4656 119.559 42.545 121.255 41.9298C122.366 41.523 122.992 40.382 122.992 40.382C122.992 40.382 122.853 39.5486 120.055 39.2013Z" fill="url(#paint1_radial_25_47)"/>
<path d="M82.0936 61.5652C80.6153 60.2952 78.611 59.6106 76.6664 59.8289C75.694 59.938 74.7217 60.2456 73.7394 60.1662C72.7571 60.077 71.7153 59.4122 71.6657 58.4299C71.636 57.785 72.0229 57.2095 72.3603 56.6638C73.2433 55.2351 73.8882 53.5285 73.4914 51.9013C73.0945 50.2741 71.2986 48.9347 69.731 49.53C68.2427 50.0955 67.7565 51.9112 67.2505 53.4194C66.5659 55.4732 65.4844 57.398 64.0953 59.0649C63.4901 59.7892 62.5971 60.5334 61.6942 60.2456C60.3945 59.8487 63.0635 52.457 60.2258 46.3848C59.3725 44.5691 58.6582 42.922 57.9636 42.922C56.7631 42.922 56.3662 46.9999 56.0289 48.4783C55.7312 49.7979 55.0565 52.328 53.7766 52.5066C52.9233 52.6256 51.8815 51.2564 51.6136 50.7206C50.7207 48.9545 49.024 44.5294 47.119 43.5173C45.6605 42.7534 43.9341 43.7952 43.9341 46.2359C43.9341 47.0594 45.7002 52.5264 46.8313 55.5625C47.1885 56.5249 45.2835 57.2294 44.3409 55.4335C44.3409 55.4335 41.4338 50.5817 40.2928 48.9446C38.5862 46.484 35.4906 46.9305 35.4906 46.9305C35.4906 46.9305 34.2404 48.9645 35.2822 51.9311C36.1454 54.4116 36.0561 53.7567 36.8102 55.6915C37.3857 57.15 36.6911 58.0231 35.7882 58.0727C34.29 58.1223 33.8435 56.3761 33.8435 56.3761C33.5161 55.4732 32.1271 52.3875 31.2341 50.5321C29.9542 47.8631 26.8387 47.873 26.8387 47.873C26.8387 47.873 25.1718 48.7065 25.787 50.3237C26.4021 51.941 26.8089 52.5562 27.2951 53.6178C27.9599 55.0664 27.315 56.0586 26.2533 55.7212C25.2611 55.4037 24.7849 54.3421 24.2789 53.5583C23.2371 51.9212 22.9295 51.435 22.0464 50.2741C20.4788 48.1806 18.2761 48.9049 18.2761 48.9049C18.2761 48.9049 16.391 50.1055 17.5121 51.9609C17.5121 51.9609 17.9983 53.0523 18.673 54.2826C19.1393 55.1359 18.9707 55.8701 18.1571 55.9991C17.2145 56.1479 17.1053 55.503 16.391 54.4116C15.6468 53.2805 15.24 52.5859 14.2776 51.4152C13.1366 50.036 11.2018 50.2841 11.2018 50.2841C11.2018 50.2841 9.97151 51.2366 10.8645 52.963C11.2812 53.7766 11.8864 54.1238 11.5987 54.61C10.9141 55.7808 9.40597 53.9651 8.62214 53.3003C7.11401 52.0303 5.27847 52.5859 5.27847 52.5859C5.27847 52.5859 5.15941 53.6773 6.03253 54.8283C6.3798 55.2847 6.57823 55.5129 7.22316 56.1082C7.73909 56.5845 7.3323 56.6341 6.82628 56.9317C4.39542 58.3605 4.6137 59.1741 4.6137 59.1741C4.6137 59.1741 5.63566 59.9678 6.81636 59.9083C8.62214 59.8091 9.40597 59.3725 10.7851 58.4299C11.7277 57.785 13.0671 56.4158 13.8113 57.0111C14.4562 57.5171 14.1486 58.3307 13.5434 58.8863C13.5434 58.8863 12.4917 59.948 11.7376 61.1088C10.7653 62.607 11.5789 64.7105 11.5789 64.7105C11.5789 64.7105 14.6546 64.4327 15.8949 63.3412C17.145 62.2399 18.1273 61.0691 19.4171 59.6106C20.6475 58.2216 21.1138 58.0033 21.8678 58.3307C22.6219 58.6482 22.5624 59.1641 21.9373 60.2456C21.9373 60.2456 18.9707 63.4702 18.3555 65.5538C17.9289 66.9925 19.5164 68.9471 19.5164 68.9471C19.5164 68.9471 22.4235 68.0541 23.8026 66.288C23.8026 66.288 26.3228 63.3313 27.2257 62.2399C28.1385 61.1485 29.0414 59.8289 30.3114 59.948C31.1845 60.0273 31.3135 60.6921 30.7678 61.8133C30.7678 61.8133 27.9797 65.7027 26.9875 67.9053C25.8167 70.5048 27.176 73.2135 27.176 73.2135C27.176 73.2135 30.7876 73.1044 32.4644 70.9216C35.1731 67.3894 34.8556 67.4092 36.076 65.8515C37.5146 64.006 39.3601 62.3689 40.2134 62.9543C41.4735 63.8175 40.0546 64.9089 39.628 65.5836C39.628 65.5836 35.5402 70.9017 34.7564 72.9853C33.5955 76.0512 34.8853 79.375 34.8853 79.375C34.8853 79.375 38.4572 79.0773 41.285 75.7237C41.781 75.1384 42.2077 74.6125 42.6046 74.1362L44.8469 75.6345C43.7853 77.5097 43.0014 79.4345 42.2573 81.7761C44.0631 81.1709 52.6554 84.2169 52.6554 84.2169L80.4367 84.2863C80.6153 83.2544 80.655 82.2523 80.5954 81.2701L81.915 81.28L91.4202 81.6471C91.4202 81.6471 93.355 77.976 95.131 77.1823C95.3691 77.0731 95.4385 76.7854 95.2699 76.587C93.7419 74.8605 91.9163 72.7571 89.8426 71.6657C88.0468 70.7231 86.1616 71.0406 85.1793 68.7884C84.1475 66.4369 84.5046 64.0457 82.6195 62.0712C82.4607 61.8927 82.2821 61.724 82.0936 61.5652Z" fill="url(#paint2_radial_25_47)"/>
<path d="M74.3644 56.6737C73.2929 56.0884 72.8761 55.2648 73.6501 54.6497C73.9973 54.3719 75.3665 54.9275 77.8867 55.6121C81.1411 56.4952 83.0857 57.0508 85.1396 56.9615C89.2968 56.7928 89.8922 53.1912 89.8922 53.1912C89.8922 53.1912 89.3861 51.6731 85.5166 51.4052C84.0184 51.306 81.3395 50.7504 79.1964 50.1352C77.212 49.5697 75.555 48.4981 76.5472 47.5357C77.1425 46.9602 78.3629 47.496 79.7222 47.7341C82.6988 48.26 85.1297 48.8454 87.0049 48.895C90.9538 49.0041 92.3032 46.5038 92.3032 46.5038C92.3032 46.5038 91.7872 44.1821 88.7412 43.428C87.114 43.0212 85.3281 42.7633 82.0638 42.0687C80.1687 41.6719 80.2878 41.0865 80.8533 40.5805C81.6173 39.8959 83.185 40.0645 84.1474 40.1439C86.4691 40.3523 89.3762 41.0468 90.9736 41.146C93.7319 41.3147 95.1607 39.2509 95.1607 39.2509C95.1607 39.2509 95.0615 36.8995 92.3825 36.0561C89.8425 35.2524 89.2373 35.5898 87.243 34.8555C85.973 34.3892 85.5265 33.8534 86.0325 33.397C86.4989 32.9803 87.501 32.9704 89.4357 33.1291C92.0254 33.3375 94.0395 33.7939 96.004 33.9725C99.3874 34.2801 100.36 32.127 100.36 32.127C100.36 32.127 100.052 30.2915 97.6511 29.5573C96.5001 29.2001 95.24 29.0711 93.2656 28.4956C92.4718 28.2674 92.3429 27.8309 92.6703 27.3149C92.9977 26.8089 93.9006 26.6998 95.1706 26.8287C97.3732 27.057 98.1571 27.2455 99.7049 27.4836C102.781 27.9698 104.319 26.6204 104.319 26.6204C104.319 26.6204 104.686 24.7848 102.929 24.1598C101.312 23.5843 100.191 23.5347 99.0203 23.2271C97.8495 22.9195 97.9884 22.4234 98.3754 22.1456C99.7049 21.1832 103.693 22.6913 105.063 22.8402C107.394 23.0981 108.664 21.7289 108.664 21.7289C108.664 21.7289 109.022 20.0124 107.335 19.427C105.985 18.9607 104.745 18.9111 105.479 18.2364C105.837 17.909 107.077 17.7998 107.722 17.8495C109.686 17.9884 110.44 18.1967 111.383 17.9487C112.266 17.7205 113.437 16.8672 114.092 16.2223C112.663 15.2797 111.016 15.0118 109.349 14.7538C107.494 14.4661 106.452 16.5795 105.529 16.2818C105.073 16.133 106.095 14.5355 105.043 14.6447C104.418 14.7141 103.068 15.0416 102.543 16.5497C102.076 17.8792 101.987 19.8437 100.638 19.5759C99.8041 19.4171 100.141 18.4745 100.261 17.8098C100.588 16.0238 99.814 15.746 99.814 15.746C99.814 15.746 97.0458 15.6964 96.1132 18.6035C95.6171 20.1414 95.3393 22.8302 94.0693 22.7905C92.9878 22.7608 93.4144 21.5205 93.3946 20.4391C93.3648 18.7127 91.7674 18.5043 91.7674 18.5043C91.7674 18.5043 89.1182 19.0302 88.9694 21.2626C88.9099 22.1159 88.8702 23.7331 88.8702 25.6282C88.8702 27.2455 88.4634 28.5254 87.8483 28.8032C86.6576 29.3489 86.6179 27.8209 86.5187 26.2334C86.4195 24.6559 86.4691 23.753 86.2211 23.0684C85.854 22.0762 83.82 22.1655 83.82 22.1655C83.82 22.1655 81.5975 23.8423 81.6868 25.6679C81.7562 27.0966 81.9844 29.2298 82.1332 30.0831C82.3912 31.5813 82.3714 33.6153 81.4883 34.4091C80.6251 35.183 80.01 32.7819 79.3551 29.21C78.7697 25.9953 76.3091 26.4021 76.3091 26.4021C76.3091 26.4021 73.9576 28.1682 74.3247 30.9463C74.5926 33.0101 75.0391 34.5083 75.4161 35.7386C76.3488 38.7945 76.4976 39.8959 76.2099 40.5904C75.059 43.3685 73.65 38.7152 72.3999 34.9151C71.5367 32.2858 69.215 32.5934 69.215 32.5934C69.215 32.5934 67.1711 34.5281 67.6275 36.9193C68.3815 40.898 69.7111 43.1403 70.5743 44.6087C72.1816 47.367 72.519 48.5874 72.2213 49.3117C71.8939 50.0955 70.3957 49.3018 69.2249 47.367C67.9747 45.2735 67.4191 44.0134 66.5261 41.4437C65.7622 39.2609 64.899 39.5387 64.899 39.5387C64.899 39.5387 63.0039 42.2473 63.9365 45.2834C65.8018 51.3358 69.5126 54.3123 69.8599 54.6497C70.6933 55.4434 69.5424 55.503 67.9053 54.739C66.1193 53.9055 63.6686 49.3712 63.6686 49.3712C63.6686 49.3712 62.9245 51.7624 64.3334 54.8779C65.9705 58.4895 68.4212 58.926 69.9393 59.303C71.7153 59.7495 72.3701 59.4717 73.2631 60.5631C76.9739 65.147 82.3615 64.4227 83.2643 64.4227C87.6597 64.4227 88.1459 61.347 88.1459 61.347C88.1459 61.347 87.4911 59.9579 84.6137 59.4618C83.4727 59.2634 82.2722 59.3824 78.5812 58.3109C77.3112 57.9636 75.5848 57.3385 74.3644 56.6737ZM59.0649 35.7187C59.0649 35.7187 56.7134 36.6911 56.3959 38.5961C56.009 40.5309 55.9296 46.2459 54.9175 48.4981C54.2528 49.9666 53.082 49.0438 53.5384 46.6527C54.1238 43.6166 54.8283 39.747 54.3619 36.5423C53.975 33.903 51.7326 32.2461 51.7326 32.2461C51.7326 32.2461 49.4804 32.5636 49.2422 33.9527C48.8454 36.2843 48.9644 38.3381 48.8255 39.9058C48.7263 40.9972 48.7362 42.9518 47.3571 42.5847C46.474 42.3565 46.7221 39.6974 46.7518 38.8937C46.8114 37.0185 47.1487 36.1355 47.119 32.5735C47.0892 29.7061 44.0035 28.1384 44.0035 28.1384C44.0035 28.1384 42.2275 28.6048 41.9497 30.351C41.5329 33.0101 41.8108 35.937 40.1935 35.431C39.1418 35.1036 39.9554 30.8967 39.6577 28.6941C39.3601 26.4319 37.3261 25.1023 37.3261 25.1023C37.3261 25.1023 35.3913 25.152 35.2425 27.1959C35.1135 29.0612 35.3913 31.7004 33.7244 31.7599C32.0774 31.8194 32.9307 29.0016 32.4544 25.7572C32.1072 23.3958 29.4779 22.473 29.4779 22.473C29.4779 22.473 27.4042 22.8005 27.424 24.4673C27.434 25.1023 27.3149 26.7692 26.2731 26.5509C25.3305 26.3525 24.9336 25.0031 24.7054 24.2292C24.4177 23.2767 24.1895 22.6318 23.4354 21.9075C22.5623 21.0641 20.062 20.2803 19.9727 20.32C19.8239 20.3895 19.6056 22.4433 19.9132 23.2569C20.3696 24.4872 21.2129 25.152 21.9571 26.1541C22.8997 27.4141 21.4312 27.1959 20.4192 27.8309C19.2186 28.5849 18.9309 29.9442 18.9309 29.9442C18.9309 29.9442 20.32 31.1249 21.7388 31.2241C23.0882 31.3234 24.3483 30.9066 25.5786 30.5395C27.1661 30.0534 28.694 29.6763 29.2 30.4205C29.974 31.5416 27.3347 31.6111 25.4694 33.1391C24.3086 34.0916 24.1895 35.6989 24.1895 35.6989C24.1895 35.6989 27.0966 37.6039 28.5551 37.088C31.3829 36.0759 32.385 35.2326 33.7443 34.796C35.302 34.29 37.0383 35.0937 35.2425 36.3537C33.9526 37.2666 32.3651 38.1496 31.3233 39.2013C30.0434 40.4812 30.1525 42.1779 30.1525 42.1779C30.1525 42.1779 32.2461 43.7555 33.9923 43.3586C36.8697 42.7037 38.6556 41.3147 40.1836 40.5904C42.0191 39.7272 42.7732 39.9455 43.3983 40.4515C44.0729 41.0071 42.7831 41.5627 41.1758 42.3862C39.3204 43.3387 37.2765 45.0255 36.5125 45.849C35.5203 46.9205 35.6195 50.7107 35.6195 50.7107C35.6195 50.7107 38.735 51.8616 41.3345 50.6611C44.0729 49.401 46.9503 46.5137 48.1707 46.9503C50.0558 47.6151 48.6271 48.6767 45.9383 50.8397C43.8943 52.4867 42.1183 53.6773 40.8384 55.1061C39.6379 56.4455 39.7073 59.8785 39.7073 59.8785C39.7073 59.8785 41.275 60.8112 43.5967 60.6127C46.5733 60.3647 50.413 55.3045 51.8715 53.9452C52.824 53.0622 53.717 54.233 52.0898 57.2492C49.5796 61.9125 48.4088 61.8927 47.1487 65.4744C46.1764 68.2625 47.8135 70.9513 47.8135 70.9513C47.8135 70.9513 50.3833 71.6062 52.1295 70.3759C53.5186 69.4035 54.5207 67.5084 55.5228 64.7998C55.7609 64.1648 56.2372 62.6368 56.1876 58.668C56.1578 55.7212 55.622 56.5051 57.1599 53.8659C60.7516 47.7044 61.8133 44.9163 61.3172 40.253C61.0294 37.4352 59.0649 35.7187 59.0649 35.7187Z" fill="#73B03E"/>
<path d="M73.7095 64.135C73.7095 64.135 68.5204 65.663 66.794 67.1513C65.0676 68.6495 63.1427 71.2887 61.079 72.0328C59.0152 72.777 57.5667 72.5984 57.5667 72.5984C57.5667 72.5984 58.7573 67.9053 61.9521 65.6233C65.1767 63.3115 70.0186 62.3094 73.7095 64.135Z" fill="#A1D65C"/>
<path d="M43.9441 76.2893H92.978V84.9213H43.9441V76.2893Z" fill="url(#paint3_linear_25_47)"/>
<path d="M111.443 105.251C111.671 104.438 111.552 103.356 111.582 101.719C111.601 100.767 112.157 100.747 113.774 102.384C114.489 103.108 115.808 103.227 115.808 103.227C115.967 100.191 114.657 99.2981 112.564 98.1174C110.718 97.0855 108.922 96.7085 109.746 95.5576C110.014 95.1805 111.254 95.7858 111.889 96.0338C115.63 97.5122 115.957 96.3712 115.957 96.3712C115.957 96.3712 115.709 93.474 111.919 92.1445C110.093 91.5095 106.988 91.053 107.027 90.1303C107.067 88.9198 108.793 89.3763 109.805 89.6243C114.925 90.8546 115.392 90.0708 115.392 90.0708C115.392 90.0708 114.35 85.8738 109.528 85.0404C107.146 84.6336 102.9 84.2566 102.692 83.1255C102.473 81.9249 107.097 82.6095 108.942 82.9072C111.512 83.3239 112.256 82.6591 112.256 82.6591C112.256 82.6591 111.145 78.74 105.708 78.2737C101.699 77.9363 99.0899 78.4721 98.445 77.4601C97.8695 76.5373 101.57 76.3091 105.142 76.577C107.95 76.7854 109.468 76.7159 109.468 76.7159C109.468 76.7159 108.397 72.7373 102.513 72.3305C96.659 71.9237 91.2615 73.4715 91.9362 72.3205C92.6506 71.1101 95.0021 70.9216 97.9786 70.7727C99.4967 70.7033 101.372 70.7529 102.364 70.6239C104.686 70.3262 105.4 69.3837 105.4 69.3837C105.4 69.3837 102.94 67.0719 99.3677 66.4468C96.2225 65.9011 93.5832 66.3377 89.8824 67.2108C87.8484 67.687 85.4076 68.3816 84.723 67.8061C84.2765 67.439 86.0128 66.3674 87.8583 65.9209C89.3863 65.5538 92.3132 65.276 94.3571 65.1073C95.647 65.0081 96.4804 64.5815 96.4804 64.5815C96.4804 64.5815 95.9446 64.1449 94.9822 63.6588C93.1963 62.7559 90.1602 61.9522 87.2134 62.5475C85.4374 62.9047 84.0979 63.2321 82.689 64.3136C81.2404 65.4248 80.4169 66.4567 78.6508 66.3972C76.8847 66.3476 75.8727 65.6233 72.6977 66.6849C71.3185 67.1512 68.5404 69.1555 66.3477 71.6855C64.0657 74.3248 64.5419 76.7854 64.5419 76.7854C64.5419 76.7854 66.943 77.4998 69.3639 76.1504C72.7671 74.2553 76.8351 68.8181 78.5714 69.0166C80.6451 69.2547 77.7777 71.3383 76.4283 72.7869C73.3823 76.0412 71.9635 78.9384 71.5567 81.3792C71.1896 83.5918 72.0627 84.6634 72.0627 84.6634C72.0627 84.6634 75.1682 84.2169 76.4978 82.3813C78.4226 79.7123 80.4764 77.2021 81.8159 75.3467C83.4629 73.0647 84.4154 72.3205 85.2489 71.9634C86.876 71.2688 88.1758 71.7451 85.8243 74.4339C83.0164 77.6387 80.6154 81.151 79.9903 83.6216C79.385 85.9929 80.5558 88.007 80.5558 88.007C80.5558 88.007 83.4332 87.0049 84.7032 85.3777C87.2432 82.1134 88.0865 80.2382 89.4557 78.2042C90.5273 76.6068 91.7675 75.3269 92.978 75.6741C94.2778 76.0512 92.9284 77.6188 91.3211 80.0001C89.9518 82.0142 88.404 84.9313 87.9774 87.0645C87.4118 89.922 88.275 91.311 88.275 91.311C88.275 91.311 91.7278 90.7554 92.7498 89.1877C93.6328 87.8483 95.2799 84.4451 96.4308 82.8576C97.3833 81.538 98.2267 79.8612 99.3975 80.5557C100.013 80.9228 99.4074 82.3119 98.1076 84.4252C97.1055 86.0524 95.9645 88.2055 95.4188 90.0113C94.8532 91.8766 95.6569 93.9403 95.6569 93.9403C95.6569 93.9403 98.4846 94.0693 99.6356 91.8766C100.598 90.0509 101.451 88.5031 102.146 87.3919C103.634 85.0205 104.547 86.6775 103.436 88.7611C102.255 90.9737 101.431 92.452 100.856 94.6051C100.499 95.9445 101.154 97.7404 101.154 97.7404C101.154 97.7404 102.93 97.8595 103.942 96.5696C105.718 94.3074 105.668 92.6604 106.71 93.593C107.454 94.2677 105.738 96.6391 104.805 98.3655C103.872 100.102 104.289 102.106 104.289 102.106C104.289 102.106 106.482 102.88 107.434 100.965C109.161 97.5122 109.964 98.8516 109.498 100.419C109.349 100.935 108.645 103.207 108.496 103.733C107.672 106.521 109.21 107.712 109.21 107.712C109.21 107.712 110.907 107.136 111.443 105.251ZM22.1061 108.208C21.8282 107.662 21.2032 106.422 22.1358 105.936C23.1975 105.37 23.5943 107.107 24.5667 108.129C26.2236 109.855 27.7119 109.061 27.7119 109.061C27.7119 109.061 28.8232 107.474 27.8905 105.212C26.9876 103.029 25.0429 101.511 25.8268 100.479C26.2633 99.9034 27.5234 99.4668 29.22 102.691C30.7877 105.668 33.2781 105.112 33.2781 105.112C33.2781 105.112 35.0045 102.999 33.7643 99.7843C32.9011 97.5618 31.1052 95.627 31.4921 94.5455C31.9585 93.2359 33.1094 93.2855 34.2306 95.2302C34.935 96.4406 35.6395 97.9289 36.5325 99.1195C38.2589 101.441 40.7195 101.263 40.7195 101.263C40.7195 101.263 41.9994 99.0798 40.9973 95.8949C40.4913 94.2876 39.9654 92.9977 38.7847 90.7355C38.1993 89.6243 37.1575 88.0963 37.9513 87.1736C38.7153 86.2905 39.8166 87.4018 40.7195 88.7611C42.8725 92.0055 42.9519 92.958 44.0433 94.6845C45.6407 97.1947 49.0737 97.0955 49.0737 97.0955C49.0737 97.0955 50.3735 94.5455 49.8675 92.0155C49.2424 88.9397 48.4982 86.737 46.7222 83.949C45.9285 82.7088 45.0256 81.1113 45.7499 80.6252C46.4444 80.1688 47.516 80.6549 48.7959 82.5996C50.5322 85.2289 51.8816 87.7888 53.0921 89.9716C54.5109 92.5314 57.9736 92.9481 57.9736 92.9481C57.9736 92.9481 59.3627 91.4698 58.1423 86.9454C57.2096 83.4926 55.9198 81.3197 55.0764 79.762C54.0346 77.857 52.2189 76.587 53.3798 76.0611C54.4514 75.5749 55.8603 76.835 57.3982 79.246C58.9857 81.7364 59.3825 83.6315 61.2379 86.2012C62.756 88.3146 66.3179 87.9872 66.3179 87.9872C66.3179 87.9872 66.814 85.9631 66.4271 83.9887C66.0302 81.9348 64.7701 79.5635 62.7857 77.2914C58.3507 72.2114 55.5229 74.3148 55.2451 73.3623C55.1161 72.9159 55.3642 71.5466 54.2728 69.6615C52.7051 66.9627 48.8753 64.4227 44.5493 64.4624C42.813 64.4823 39.7075 65.018 38.3184 65.9904C38.3184 65.9904 38.4771 67.5084 40.3524 68.332C42.565 69.3142 47 70.1774 48.8852 71.9237C50.1353 73.0746 50.9192 74.424 49.5797 73.8783C49.0241 73.6501 47.129 72.3106 45.1446 71.6062C43.071 70.872 40.9775 70.5545 38.4871 70.4751C34.7664 70.356 31.8692 71.9038 31.8692 71.9038C31.8692 71.9038 32.0676 72.8563 34.2603 73.9775C35.58 74.6522 39.6579 75.2574 41.2156 76.0214C42.4955 76.6465 43.6365 77.093 42.9122 77.8173C42.4558 78.2737 41.7414 78.1248 41.1461 77.8966C38.3879 76.8251 34.1611 76.2794 31.9089 76.1901C28.7835 76.071 26.5411 78.1248 26.5411 78.1248C26.5411 78.1248 26.5213 79.8215 28.7934 80.5855C32.0875 81.6868 36.9591 81.4884 38.0703 82.7385C39.1518 83.9688 36.4531 84.1673 33.9528 83.7009C31.2441 83.185 29.8451 83.0263 25.0925 83.7406C21.8779 84.2169 20.2507 86.4394 20.2507 86.4394C20.2507 86.4394 21.1139 88.3444 22.8502 88.513C26.3129 88.8603 33.5956 88.2352 33.0598 89.6541C32.5736 90.934 31.0556 90.8348 29.4978 90.7256C26.6602 90.5371 24.14 90.3982 21.4314 91.0332C18.177 91.7972 17.036 94.4959 17.036 94.4959C17.036 94.4959 17.8496 95.8949 19.7744 95.9247C23.3066 95.9842 27.702 94.7638 28.595 95.5675C29.855 96.7085 26.9876 97.1352 25.4596 97.2046C23.5447 97.2939 20.0324 97.5519 18.0778 98.5143C15.4882 99.7843 15.2401 101.789 15.2401 101.789C15.2401 101.789 15.8057 102.82 18.4548 102.622C19.1593 102.572 21.7489 101.739 22.751 101.927C24.3385 102.235 22.9792 103.197 21.223 103.654C20.7071 103.783 18.5044 104.289 17.542 104.815C16.5399 105.36 14.9226 105.906 14.5654 108.982C14.5654 108.982 15.6469 109.448 17.6611 108.833C18.6036 108.545 19.4371 107.89 19.9232 108.367C20.3995 108.843 19.2684 110.232 19.1394 111.661C18.8616 114.588 20.5682 115.858 20.5682 115.858C20.5682 115.858 22.5029 114.637 22.8304 112.306C23.1479 109.835 22.3243 108.645 22.1061 108.208Z" fill="#A1D65C"/>
<defs>
<linearGradient id="paint0_linear_25_47" x1="65.2531" y1="58.7633" x2="65.9864" y2="25.6907" gradientUnits="userSpaceOnUse">
<stop offset="0.365" stop-color="#1B5E20"/>
<stop offset="0.95" stop-color="#2E7D32"/>
</linearGradient>
<radialGradient id="paint1_radial_25_47" cx="0" cy="0" r="1" gradientUnits="userSpaceOnUse" gradientTransform="translate(84.8003 70.7946) scale(27.4677 27.4677)">
<stop offset="0.209" stop-color="#1B5E20"/>
<stop offset="0.74" stop-color="#2E7D32"/>
</radialGradient>
<radialGradient id="paint2_radial_25_47" cx="0" cy="0" r="1" gradientUnits="userSpaceOnUse" gradientTransform="translate(62.866 80.0338) scale(33.272)">
<stop offset="0.209" stop-color="#1B5E20"/>
<stop offset="0.74" stop-color="#2E7D32"/>
</radialGradient>
<linearGradient id="paint3_linear_25_47" x1="68.4591" y1="83.2584" x2="68.4591" y2="76.196" gradientUnits="userSpaceOnUse">
<stop stop-color="#5D4037"/>
<stop offset="1" stop-color="#5D4037" stop-opacity="0"/>
</linearGradient>
</defs>
</svg>
